<?xml version="1.0" encoding="UTF-8" standalone="no"?>
<!DOCTYPE svg PUBLIC "-//W3C//DTD SVG 1.1//EN"
 "http://www.w3.org/Graphics/SVG/1.1/DTD/svg11.dtd">
<!-- Generated by graphviz version 2.38.0 (20140413.2041)
 -->
<!-- Title: round&#45;28 Pages: 1 -->
<svg width="572pt" height="3230pt"
 viewBox="0.00 0.00 572.26 3230.00" xmlns="http://www.w3.org/2000/svg" xmlns:xlink="http://www.w3.org/1999/xlink">
<g id="graph0" class="graph" transform="scale(1 1) rotate(0) translate(4 3226)">
<title>round&#45;28</title>
<polygon fill="white" stroke="none" points="-4,4 -4,-3226 568.26,-3226 568.26,4 -4,4"/>
<!-- Player 5 model -->
<g id="node1" class="node"><title>Player 5 model</title>
<ellipse fill="none" stroke="black" cx="64.9942" cy="-1611" rx="64.9885" ry="18"/>
<text text-anchor="middle" x="64.9942" y="-1607.3" font-family="Times,serif" font-size="14.00">Player 5 model</text>
</g>
<!-- healthy_food -->
<g id="node2" class="node"><title>healthy_food</title>
<ellipse fill="none" stroke="black" cx="225.783" cy="-2583" rx="57.3905" ry="18"/>
<text text-anchor="middle" x="225.783" y="-2579.3" font-family="Times,serif" font-size="14.00">healthy_food</text>
</g>
<!-- Player 5 model&#45;&#45;healthy_food -->
<g id="edge1" class="edge"><title>Player 5 model&#45;&#45;healthy_food</title>
<path fill="none" stroke="black" d="M68.9548,-1629.12C88.7817,-1750.49 202.08,-2444.03 221.843,-2565"/>
</g>
<!-- super_heroes -->
<g id="node8" class="node"><title>super_heroes</title>
<ellipse fill="none" stroke="black" cx="225.783" cy="-1611" rx="57.3905" ry="18"/>
<text text-anchor="middle" x="225.783" y="-1607.3" font-family="Times,serif" font-size="14.00">super_heroes</text>
</g>
<!-- Player 5 model&#45;&#45;super_heroes -->
<g id="edge7" class="edge"><title>Player 5 model&#45;&#45;super_heroes</title>
<path fill="none" stroke="black" d="M130.122,-1611C142.775,-1611 155.965,-1611 168.342,-1611"/>
</g>
<!-- farm_animals -->
<g id="node14" class="node"><title>farm_animals</title>
<ellipse fill="none" stroke="black" cx="225.783" cy="-639" rx="59.5901" ry="18"/>
<text text-anchor="middle" x="225.783" y="-635.3" font-family="Times,serif" font-size="14.00">farm_animals</text>
</g>
<!-- Player 5 model&#45;&#45;farm_animals -->
<g id="edge13" class="edge"><title>Player 5 model&#45;&#45;farm_animals</title>
<path fill="none" stroke="black" d="M68.9548,-1592.88C88.7817,-1471.51 202.08,-777.971 221.843,-656.998"/>
</g>
<!-- healthy_food&#45;Player 1 -->
<g id="node3" class="node"><title>healthy_food&#45;Player 1</title>
<ellipse fill="none" stroke="black" cx="361.874" cy="-3096" rx="40.0939" ry="18"/>
<text text-anchor="middle" x="361.874" y="-3092.3" font-family="Times,serif" font-size="14.00">Player 1</text>
</g>
<!-- healthy_food&#45;&#45;healthy_food&#45;Player 1 -->
<g id="edge2" class="edge"><title>healthy_food&#45;&#45;healthy_food&#45;Player 1</title>
<path fill="none" stroke="black" d="M231.477,-2600.96C252.197,-2680.23 335.366,-2998.41 356.149,-3077.92"/>
</g>
<!-- healthy_food&#45;Player 2 -->
<g id="node4" class="node"><title>healthy_food&#45;Player 2</title>
<ellipse fill="none" stroke="black" cx="361.874" cy="-2880" rx="40.0939" ry="18"/>
<text text-anchor="middle" x="361.874" y="-2876.3" font-family="Times,serif" font-size="14.00">Player 2</text>
</g>
<!-- healthy_food&#45;&#45;healthy_food&#45;Player 2 -->
<g id="edge3" class="edge"><title>healthy_food&#45;&#45;healthy_food&#45;Player 2</title>
<path fill="none" stroke="black" d="M234.969,-2601.13C258.965,-2654.28 328.937,-2809.26 352.795,-2862.11"/>
</g>
<!-- healthy_food&#45;Player 3 -->
<g id="node5" class="node"><title>healthy_food&#45;Player 3</title>
<ellipse fill="none" stroke="black" cx="361.874" cy="-2664" rx="40.0939" ry="18"/>
<text text-anchor="middle" x="361.874" y="-2660.3" font-family="Times,serif" font-size="14.00">Player 3</text>
</g>
<!-- healthy_food&#45;&#45;healthy_food&#45;Player 3 -->
<g id="edge4" class="edge"><title>healthy_food&#45;&#45;healthy_food&#45;Player 3</title>
<path fill="none" stroke="black" d="M253.275,-2599C277.699,-2613.76 313.624,-2635.46 337.133,-2649.66"/>
</g>
<!-- healthy_food&#45;Player 4 -->
<g id="node6" class="node"><title>healthy_food&#45;Player 4</title>
<ellipse fill="none" stroke="black" cx="361.874" cy="-2502" rx="40.0939" ry="18"/>
<text text-anchor="middle" x="361.874" y="-2498.3" font-family="Times,serif" font-size="14.00">Player 4</text>
</g>
<!-- healthy_food&#45;&#45;healthy_food&#45;Player 4 -->
<g id="edge5" class="edge"><title>healthy_food&#45;&#45;healthy_food&#45;Player 4</title>
<path fill="none" stroke="black" d="M253.275,-2567C277.699,-2552.24 313.624,-2530.54 337.133,-2516.34"/>
</g>
<!-- healthy_food&#45;Player 5 -->
<g id="node7" class="node"><title>healthy_food&#45;Player 5</title>
<ellipse fill="none" stroke="black" cx="361.874" cy="-2286" rx="40.0939" ry="18"/>
<text text-anchor="middle" x="361.874" y="-2282.3" font-family="Times,serif" font-size="14.00">Player 5</text>
</g>
<!-- healthy_food&#45;&#45;healthy_food&#45;Player 5 -->
<g id="edge6" class="edge"><title>healthy_food&#45;&#45;healthy_food&#45;Player 5</title>
<path fill="none" stroke="black" d="M234.969,-2564.87C258.965,-2511.72 328.937,-2356.74 352.795,-2303.89"/>
</g>
<!-- 1&#45;giants_milk -->
<g id="node20" class="node"><title>1&#45;giants_milk</title>
<ellipse fill="#1a1a1a" stroke="black" cx="501.215" cy="-3204" rx="52.7911" ry="18"/>
<text text-anchor="middle" x="501.215" y="-3200.3" font-family="Times,serif" font-size="14.00">giants_milk</text>
</g>
<!-- healthy_food&#45;Player 1&#45;&#45;1&#45;giants_milk -->
<g id="edge19" class="edge"><title>healthy_food&#45;Player 1&#45;&#45;1&#45;giants_milk</title>
<path fill="none" stroke="black" d="M375.354,-3113.14C389.088,-3131.02 412.63,-3158.91 438.171,-3177 445.936,-3182.5 454.999,-3187.22 463.761,-3191.11"/>
</g>
<!-- 1&#45;vitamin_pill -->
<g id="node21" class="node"><title>1&#45;vitamin_pill</title>
<ellipse fill="#1a1a1a" stroke="black" cx="501.215" cy="-3150" rx="53.8905" ry="18"/>
<text text-anchor="middle" x="501.215" y="-3146.3" font-family="Times,serif" font-size="14.00">vitamin_pill</text>
</g>
<!-- healthy_food&#45;Player 1&#45;&#45;1&#45;vitamin_pill -->
<g id="edge20" class="edge"><title>healthy_food&#45;Player 1&#45;&#45;1&#45;vitamin_pill</title>
<path fill="none" stroke="black" d="M392.675,-3107.72C414.134,-3116.15 443.143,-3127.56 465.625,-3136.4"/>
</g>
<!-- 1&#45;cucumber -->
<g id="node22" class="node"><title>1&#45;cucumber</title>
<ellipse fill="#1a1a1a" stroke="black" cx="501.215" cy="-3096" rx="46.2923" ry="18"/>
<text text-anchor="middle" x="501.215" y="-3092.3" font-family="Times,serif" font-size="14.00">cucumber</text>
</g>
<!-- healthy_food&#45;Player 1&#45;&#45;1&#45;cucumber -->
<g id="edge21" class="edge"><title>healthy_food&#45;Player 1&#45;&#45;1&#45;cucumber</title>
<path fill="none" stroke="black" d="M402.231,-3096C418.718,-3096 437.98,-3096 455.042,-3096"/>
</g>
<!-- 1&#45;avocado -->
<g id="node23" class="node"><title>1&#45;avocado</title>
<ellipse fill="#1a1a1a" stroke="black" cx="501.215" cy="-3042" rx="40.0939" ry="18"/>
<text text-anchor="middle" x="501.215" y="-3038.3" font-family="Times,serif" font-size="14.00">avocado</text>
</g>
<!-- healthy_food&#45;Player 1&#45;&#45;1&#45;avocado -->
<g id="edge22" class="edge"><title>healthy_food&#45;Player 1&#45;&#45;1&#45;avocado</title>
<path fill="none" stroke="black" d="M392.675,-3084.28C415.712,-3075.23 447.45,-3062.75 470.472,-3053.69"/>
</g>
<!-- 2&#45;giants_milk -->
<g id="node24" class="node"><title>2&#45;giants_milk</title>
<ellipse fill="#1a1a1a" stroke="black" cx="501.215" cy="-2988" rx="52.7911" ry="18"/>
<text text-anchor="middle" x="501.215" y="-2984.3" font-family="Times,serif" font-size="14.00">giants_milk</text>
</g>
<!-- healthy_food&#45;Player 2&#45;&#45;2&#45;giants_milk -->
<g id="edge23" class="edge"><title>healthy_food&#45;Player 2&#45;&#45;2&#45;giants_milk</title>
<path fill="none" stroke="black" d="M375.354,-2897.14C389.088,-2915.02 412.63,-2942.91 438.171,-2961 445.936,-2966.5 454.999,-2971.22 463.761,-2975.11"/>
</g>
<!-- 2&#45;vitamin_pill -->
<g id="node25" class="node"><title>2&#45;vitamin_pill</title>
<ellipse fill="#1a1a1a" stroke="black" cx="501.215" cy="-2934" rx="53.8905" ry="18"/>
<text text-anchor="middle" x="501.215" y="-2930.3" font-family="Times,serif" font-size="14.00">vitamin_pill</text>
</g>
<!-- healthy_food&#45;Player 2&#45;&#45;2&#45;vitamin_pill -->
<g id="edge24" class="edge"><title>healthy_food&#45;Player 2&#45;&#45;2&#45;vitamin_pill</title>
<path fill="none" stroke="black" d="M392.675,-2891.72C414.134,-2900.15 443.143,-2911.56 465.625,-2920.4"/>
</g>
<!-- 2&#45;cucumber -->
<g id="node26" class="node"><title>2&#45;cucumber</title>
<ellipse fill="#1a1a1a" stroke="black" cx="501.215" cy="-2880" rx="46.2923" ry="18"/>
<text text-anchor="middle" x="501.215" y="-2876.3" font-family="Times,serif" font-size="14.00">cucumber</text>
</g>
<!-- healthy_food&#45;Player 2&#45;&#45;2&#45;cucumber -->
<g id="edge25" class="edge"><title>healthy_food&#45;Player 2&#45;&#45;2&#45;cucumber</title>
<path fill="none" stroke="black" d="M402.231,-2880C418.718,-2880 437.98,-2880 455.042,-2880"/>
</g>
<!-- 2&#45;avocado -->
<g id="node27" class="node"><title>2&#45;avocado</title>
<ellipse fill="#1a1a1a" stroke="black" cx="501.215" cy="-2826" rx="40.0939" ry="18"/>
<text text-anchor="middle" x="501.215" y="-2822.3" font-family="Times,serif" font-size="14.00">avocado</text>
</g>
<!-- healthy_food&#45;Player 2&#45;&#45;2&#45;avocado -->
<g id="edge26" class="edge"><title>healthy_food&#45;Player 2&#45;&#45;2&#45;avocado</title>
<path fill="none" stroke="black" d="M392.675,-2868.28C415.712,-2859.23 447.45,-2846.75 470.472,-2837.69"/>
</g>
<!-- 3&#45;giants_milk -->
<g id="node28" class="node"><title>3&#45;giants_milk</title>
<ellipse fill="#1a1a1a" stroke="black" cx="501.215" cy="-2772" rx="52.7911" ry="18"/>
<text text-anchor="middle" x="501.215" y="-2768.3" font-family="Times,serif" font-size="14.00">giants_milk</text>
</g>
<!-- healthy_food&#45;Player 3&#45;&#45;3&#45;giants_milk -->
<g id="edge27" class="edge"><title>healthy_food&#45;Player 3&#45;&#45;3&#45;giants_milk</title>
<path fill="none" stroke="black" d="M375.354,-2681.14C389.088,-2699.02 412.63,-2726.91 438.171,-2745 445.936,-2750.5 454.999,-2755.22 463.761,-2759.11"/>
</g>
<!-- 3&#45;vitamin_pill -->
<g id="node29" class="node"><title>3&#45;vitamin_pill</title>
<ellipse fill="#1a1a1a" stroke="black" cx="501.215" cy="-2718" rx="53.8905" ry="18"/>
<text text-anchor="middle" x="501.215" y="-2714.3" font-family="Times,serif" font-size="14.00">vitamin_pill</text>
</g>
<!-- healthy_food&#45;Player 3&#45;&#45;3&#45;vitamin_pill -->
<g id="edge28" class="edge"><title>healthy_food&#45;Player 3&#45;&#45;3&#45;vitamin_pill</title>
<path fill="none" stroke="black" d="M392.675,-2675.72C414.134,-2684.15 443.143,-2695.56 465.625,-2704.4"/>
</g>
<!-- 3&#45;cucumber -->
<g id="node30" class="node"><title>3&#45;cucumber</title>
<ellipse fill="#1a1a1a" stroke="black" cx="501.215" cy="-2664" rx="46.2923" ry="18"/>
<text text-anchor="middle" x="501.215" y="-2660.3" font-family="Times,serif" font-size="14.00">cucumber</text>
</g>
<!-- healthy_food&#45;Player 3&#45;&#45;3&#45;cucumber -->
<g id="edge29" class="edge"><title>healthy_food&#45;Player 3&#45;&#45;3&#45;cucumber</title>
<path fill="none" stroke="black" d="M402.231,-2664C418.718,-2664 437.98,-2664 455.042,-2664"/>
</g>
<!-- 3&#45;avocado -->
<g id="node31" class="node"><title>3&#45;avocado</title>
<ellipse fill="#1a1a1a" stroke="black" cx="501.215" cy="-2610" rx="40.0939" ry="18"/>
<text text-anchor="middle" x="501.215" y="-2606.3" font-family="Times,serif" font-size="14.00">avocado</text>
</g>
<!-- healthy_food&#45;Player 3&#45;&#45;3&#45;avocado -->
<g id="edge30" class="edge"><title>healthy_food&#45;Player 3&#45;&#45;3&#45;avocado</title>
<path fill="none" stroke="black" d="M392.675,-2652.28C415.712,-2643.23 447.45,-2630.75 470.472,-2621.69"/>
</g>
<!-- 4&#45;giants_milk -->
<g id="node32" class="node"><title>4&#45;giants_milk</title>
<ellipse fill="#1a1a1a" stroke="black" cx="501.215" cy="-2556" rx="52.7911" ry="18"/>
<text text-anchor="middle" x="501.215" y="-2552.3" font-family="Times,serif" font-size="14.00">giants_milk</text>
</g>
<!-- healthy_food&#45;Player 4&#45;&#45;4&#45;giants_milk -->
<g id="edge31" class="edge"><title>healthy_food&#45;Player 4&#45;&#45;4&#45;giants_milk</title>
<path fill="none" stroke="black" d="M392.675,-2513.72C414.134,-2522.15 443.143,-2533.56 465.625,-2542.4"/>
</g>
<!-- 4&#45;vitamin_pill -->
<g id="node33" class="node"><title>4&#45;vitamin_pill</title>
<ellipse fill="#1a1a1a" stroke="black" cx="501.215" cy="-2502" rx="53.8905" ry="18"/>
<text text-anchor="middle" x="501.215" y="-2498.3" font-family="Times,serif" font-size="14.00">vitamin_pill</text>
</g>
<!-- healthy_food&#45;Player 4&#45;&#45;4&#45;vitamin_pill -->
<g id="edge32" class="edge"><title>healthy_food&#45;Player 4&#45;&#45;4&#45;vitamin_pill</title>
<path fill="none" stroke="black" d="M402.231,-2502C416.181,-2502 432.119,-2502 447.03,-2502"/>
</g>
<!-- 4&#45;cucumber -->
<g id="node34" class="node"><title>4&#45;cucumber</title>
<ellipse fill="#1a1a1a" stroke="black" cx="501.215" cy="-2448" rx="46.2923" ry="18"/>
<text text-anchor="middle" x="501.215" y="-2444.3" font-family="Times,serif" font-size="14.00">cucumber</text>
</g>
<!-- healthy_food&#45;Player 4&#45;&#45;4&#45;cucumber -->
<g id="edge33" class="edge"><title>healthy_food&#45;Player 4&#45;&#45;4&#45;cucumber</title>
<path fill="none" stroke="black" d="M392.675,-2490.28C414.923,-2481.54 445.287,-2469.6 468.077,-2460.64"/>
</g>
<!-- 4&#45;avocado -->
<g id="node35" class="node"><title>4&#45;avocado</title>
<ellipse fill="#1a1a1a" stroke="black" cx="501.215" cy="-2394" rx="40.0939" ry="18"/>
<text text-anchor="middle" x="501.215" y="-2390.3" font-family="Times,serif" font-size="14.00">avocado</text>
</g>
<!-- healthy_food&#45;Player 4&#45;&#45;4&#45;avocado -->
<g id="edge34" class="edge"><title>healthy_food&#45;Player 4&#45;&#45;4&#45;avocado</title>
<path fill="none" stroke="black" d="M375.354,-2484.86C389.088,-2466.98 412.63,-2439.09 438.171,-2421 447.374,-2414.48 458.4,-2409.06 468.587,-2404.82"/>
</g>
<!-- 5&#45;giants_milk -->
<g id="node36" class="node"><title>5&#45;giants_milk</title>
<ellipse fill="#1a1a1a" stroke="black" cx="501.215" cy="-2340" rx="52.7911" ry="18"/>
<text text-anchor="middle" x="501.215" y="-2336.3" font-family="Times,serif" font-size="14.00">giants_milk</text>
</g>
<!-- healthy_food&#45;Player 5&#45;&#45;5&#45;giants_milk -->
<g id="edge35" class="edge"><title>healthy_food&#45;Player 5&#45;&#45;5&#45;giants_milk</title>
<path fill="none" stroke="black" d="M392.675,-2297.72C414.134,-2306.15 443.143,-2317.56 465.625,-2326.4"/>
</g>
<!-- 5&#45;vitamin_pill -->
<g id="node37" class="node"><title>5&#45;vitamin_pill</title>
<ellipse fill="#1a1a1a" stroke="black" cx="501.215" cy="-2286" rx="53.8905" ry="18"/>
<text text-anchor="middle" x="501.215" y="-2282.3" font-family="Times,serif" font-size="14.00">vitamin_pill</text>
</g>
<!-- healthy_food&#45;Player 5&#45;&#45;5&#45;vitamin_pill -->
<g id="edge36" class="edge"><title>healthy_food&#45;Player 5&#45;&#45;5&#45;vitamin_pill</title>
<path fill="none" stroke="black" d="M402.231,-2286C416.181,-2286 432.119,-2286 447.03,-2286"/>
</g>
<!-- 5&#45;cucumber -->
<g id="node38" class="node"><title>5&#45;cucumber</title>
<ellipse fill="#1a1a1a" stroke="black" cx="501.215" cy="-2232" rx="46.2923" ry="18"/>
<text text-anchor="middle" x="501.215" y="-2228.3" font-family="Times,serif" font-size="14.00">cucumber</text>
</g>
<!-- healthy_food&#45;Player 5&#45;&#45;5&#45;cucumber -->
<g id="edge37" class="edge"><title>healthy_food&#45;Player 5&#45;&#45;5&#45;cucumber</title>
<path fill="none" stroke="black" d="M392.675,-2274.28C414.923,-2265.54 445.287,-2253.6 468.077,-2244.64"/>
</g>
<!-- 5&#45;avocado -->
<g id="node39" class="node"><title>5&#45;avocado</title>
<ellipse fill="#1a1a1a" stroke="black" cx="501.215" cy="-2178" rx="40.0939" ry="18"/>
<text text-anchor="middle" x="501.215" y="-2174.3" font-family="Times,serif" font-size="14.00">avocado</text>
</g>
<!-- healthy_food&#45;Player 5&#45;&#45;5&#45;avocado -->
<g id="edge38" class="edge"><title>healthy_food&#45;Player 5&#45;&#45;5&#45;avocado</title>
<path fill="none" stroke="black" d="M375.354,-2268.86C389.088,-2250.98 412.63,-2223.09 438.171,-2205 447.374,-2198.48 458.4,-2193.06 468.587,-2188.82"/>
</g>
<!-- super_heroes&#45;Player 1 -->
<g id="node9" class="node"><title>super_heroes&#45;Player 1</title>
<ellipse fill="none" stroke="black" cx="361.874" cy="-2016" rx="40.0939" ry="18"/>
<text text-anchor="middle" x="361.874" y="-2012.3" font-family="Times,serif" font-size="14.00">Player 1</text>
</g>
<!-- super_heroes&#45;&#45;super_heroes&#45;Player 1 -->
<g id="edge8" class="edge"><title>super_heroes&#45;&#45;super_heroes&#45;Player 1</title>
<path fill="none" stroke="black" d="M232.718,-1628.92C254.867,-1695.82 332.567,-1930.5 354.856,-1997.82"/>
</g>
<!-- super_heroes&#45;Player 2 -->
<g id="node10" class="node"><title>super_heroes&#45;Player 2</title>
<ellipse fill="none" stroke="black" cx="361.874" cy="-1800" rx="40.0939" ry="18"/>
<text text-anchor="middle" x="361.874" y="-1796.3" font-family="Times,serif" font-size="14.00">Player 2</text>
</g>
<!-- super_heroes&#45;&#45;super_heroes&#45;Player 2 -->
<g id="edge9" class="edge"><title>super_heroes&#45;&#45;super_heroes&#45;Player 2</title>
<path fill="none" stroke="black" d="M239.398,-1628.78C265.15,-1665.08 323.469,-1747.28 348.777,-1782.95"/>
</g>
<!-- super_heroes&#45;Player 3 -->
<g id="node11" class="node"><title>super_heroes&#45;Player 3</title>
<ellipse fill="none" stroke="black" cx="361.874" cy="-1611" rx="40.0939" ry="18"/>
<text text-anchor="middle" x="361.874" y="-1607.3" font-family="Times,serif" font-size="14.00">Player 3</text>
</g>
<!-- super_heroes&#45;&#45;super_heroes&#45;Player 3 -->
<g id="edge10" class="edge"><title>super_heroes&#45;&#45;super_heroes&#45;Player 3</title>
<path fill="none" stroke="black" d="M283.261,-1611C296.145,-1611 309.562,-1611 321.546,-1611"/>
</g>
<!-- super_heroes&#45;Player 4 -->
<g id="node12" class="node"><title>super_heroes&#45;Player 4</title>
<ellipse fill="none" stroke="black" cx="361.874" cy="-1422" rx="40.0939" ry="18"/>
<text text-anchor="middle" x="361.874" y="-1418.3" font-family="Times,serif" font-size="14.00">Player 4</text>
</g>
<!-- super_heroes&#45;&#45;super_heroes&#45;Player 4 -->
<g id="edge11" class="edge"><title>super_heroes&#45;&#45;super_heroes&#45;Player 4</title>
<path fill="none" stroke="black" d="M239.398,-1593.22C265.15,-1556.92 323.469,-1474.72 348.777,-1439.05"/>
</g>
<!-- super_heroes&#45;Player 5 -->
<g id="node13" class="node"><title>super_heroes&#45;Player 5</title>
<ellipse fill="none" stroke="black" cx="361.874" cy="-1206" rx="40.0939" ry="18"/>
<text text-anchor="middle" x="361.874" y="-1202.3" font-family="Times,serif" font-size="14.00">Player 5</text>
</g>
<!-- super_heroes&#45;&#45;super_heroes&#45;Player 5 -->
<g id="edge12" class="edge"><title>super_heroes&#45;&#45;super_heroes&#45;Player 5</title>
<path fill="none" stroke="black" d="M232.718,-1593.08C254.867,-1526.18 332.567,-1291.5 354.856,-1224.18"/>
</g>
<!-- 1&#45;noobnoob -->
<g id="node40" class="node"><title>1&#45;noobnoob</title>
<ellipse fill="#1a1a1a" stroke="black" cx="501.215" cy="-2124" rx="46.2923" ry="18"/>
<text text-anchor="middle" x="501.215" y="-2120.3" font-family="Times,serif" font-size="14.00">noobnoob</text>
</g>
<!-- super_heroes&#45;Player 1&#45;&#45;1&#45;noobnoob -->
<g id="edge39" class="edge"><title>super_heroes&#45;Player 1&#45;&#45;1&#45;noobnoob</title>
<path fill="none" stroke="black" d="M375.354,-2033.14C389.088,-2051.02 412.63,-2078.91 438.171,-2097 446.607,-2102.97 456.575,-2108.03 466.025,-2112.1"/>
</g>
<!-- 1&#45;batman -->
<g id="node41" class="node"><title>1&#45;batman</title>
<ellipse fill="#1a1a1a" stroke="black" cx="501.215" cy="-2070" rx="37.0935" ry="18"/>
<text text-anchor="middle" x="501.215" y="-2066.3" font-family="Times,serif" font-size="14.00">batman</text>
</g>
<!-- super_heroes&#45;Player 1&#45;&#45;1&#45;batman -->
<g id="edge40" class="edge"><title>super_heroes&#45;Player 1&#45;&#45;1&#45;batman</title>
<path fill="none" stroke="black" d="M392.675,-2027.72C416.185,-2036.96 448.758,-2049.77 471.88,-2058.86"/>
</g>
<!-- 1&#45;superman -->
<g id="node42" class="node"><title>1&#45;superman</title>
<ellipse fill="#1a1a1a" stroke="black" cx="501.215" cy="-2016" rx="45.4919" ry="18"/>
<text text-anchor="middle" x="501.215" y="-2012.3" font-family="Times,serif" font-size="14.00">superman</text>
</g>
<!-- super_heroes&#45;Player 1&#45;&#45;1&#45;superman -->
<g id="edge41" class="edge"><title>super_heroes&#45;Player 1&#45;&#45;1&#45;superman</title>
<path fill="none" stroke="black" d="M402.231,-2016C418.876,-2016 438.351,-2016 455.534,-2016"/>
</g>
<!-- 1&#45;spiderman -->
<g id="node43" class="node"><title>1&#45;spiderman</title>
<ellipse fill="#cccccc" stroke="black" cx="501.215" cy="-1962" rx="48.1917" ry="18"/>
<text text-anchor="middle" x="501.215" y="-1958.3" font-family="Times,serif" font-size="14.00">spiderman</text>
</g>
<!-- super_heroes&#45;Player 1&#45;&#45;1&#45;spiderman -->
<g id="edge42" class="edge"><title>super_heroes&#45;Player 1&#45;&#45;1&#45;spiderman</title>
<path fill="none" stroke="black" d="M392.675,-2004.28C414.607,-1995.66 444.427,-1983.93 467.103,-1975.02"/>
</g>
<!-- 2&#45;noobnoob -->
<g id="node44" class="node"><title>2&#45;noobnoob</title>
<ellipse fill="#1a1a1a" stroke="black" cx="501.215" cy="-1908" rx="46.2923" ry="18"/>
<text text-anchor="middle" x="501.215" y="-1904.3" font-family="Times,serif" font-size="14.00">noobnoob</text>
</g>
<!-- super_heroes&#45;Player 2&#45;&#45;2&#45;noobnoob -->
<g id="edge43" class="edge"><title>super_heroes&#45;Player 2&#45;&#45;2&#45;noobnoob</title>
<path fill="none" stroke="black" d="M375.354,-1817.14C389.088,-1835.02 412.63,-1862.91 438.171,-1881 446.607,-1886.97 456.575,-1892.03 466.025,-1896.1"/>
</g>
<!-- 2&#45;batman -->
<g id="node45" class="node"><title>2&#45;batman</title>
<ellipse fill="#1a1a1a" stroke="black" cx="501.215" cy="-1854" rx="37.0935" ry="18"/>
<text text-anchor="middle" x="501.215" y="-1850.3" font-family="Times,serif" font-size="14.00">batman</text>
</g>
<!-- super_heroes&#45;Player 2&#45;&#45;2&#45;batman -->
<g id="edge44" class="edge"><title>super_heroes&#45;Player 2&#45;&#45;2&#45;batman</title>
<path fill="none" stroke="black" d="M392.675,-1811.72C416.185,-1820.96 448.758,-1833.77 471.88,-1842.86"/>
</g>
<!-- 2&#45;superman -->
<g id="node46" class="node"><title>2&#45;superman</title>
<ellipse fill="#1a1a1a" stroke="black" cx="501.215" cy="-1800" rx="45.4919" ry="18"/>
<text text-anchor="middle" x="501.215" y="-1796.3" font-family="Times,serif" font-size="14.00">superman</text>
</g>
<!-- super_heroes&#45;Player 2&#45;&#45;2&#45;superman -->
<g id="edge45" class="edge"><title>super_heroes&#45;Player 2&#45;&#45;2&#45;superman</title>
<path fill="none" stroke="black" d="M402.231,-1800C418.876,-1800 438.351,-1800 455.534,-1800"/>
</g>
<!-- 2&#45;spiderman -->
<g id="node47" class="node"><title>2&#45;spiderman</title>
<ellipse fill="#cccccc" stroke="black" cx="501.215" cy="-1746" rx="48.1917" ry="18"/>
<text text-anchor="middle" x="501.215" y="-1742.3" font-family="Times,serif" font-size="14.00">spiderman</text>
</g>
<!-- super_heroes&#45;Player 2&#45;&#45;2&#45;spiderman -->
<g id="edge46" class="edge"><title>super_heroes&#45;Player 2&#45;&#45;2&#45;spiderman</title>
<path fill="none" stroke="black" d="M392.675,-1788.28C414.607,-1779.66 444.427,-1767.93 467.103,-1759.02"/>
</g>
<!-- 3&#45;noobnoob -->
<g id="node48" class="node"><title>3&#45;noobnoob</title>
<ellipse fill="#1a1a1a" stroke="black" cx="501.215" cy="-1692" rx="46.2923" ry="18"/>
<text text-anchor="middle" x="501.215" y="-1688.3" font-family="Times,serif" font-size="14.00">noobnoob</text>
</g>
<!-- super_heroes&#45;Player 3&#45;&#45;3&#45;noobnoob -->
<g id="edge47" class="edge"><title>super_heroes&#45;Player 3&#45;&#45;3&#45;noobnoob</title>
<path fill="none" stroke="black" d="M382.242,-1626.64C397.015,-1638.13 418.166,-1653.64 438.171,-1665 447.467,-1670.28 457.994,-1675.21 467.703,-1679.39"/>
</g>
<!-- 3&#45;batman -->
<g id="node49" class="node"><title>3&#45;batman</title>
<ellipse fill="green" stroke="black" cx="501.215" cy="-1638" rx="37.0935" ry="18"/>
<text text-anchor="middle" x="501.215" y="-1634.3" font-family="Times,serif" font-size="14.00">batman</text>
</g>
<!-- super_heroes&#45;Player 3&#45;&#45;3&#45;batman -->
<g id="edge48" class="edge"><title>super_heroes&#45;Player 3&#45;&#45;3&#45;batman</title>
<path fill="none" stroke="black" d="M398.959,-1618.09C419.941,-1622.22 446.206,-1627.38 466.728,-1631.42"/>
</g>
<!-- 3&#45;superman -->
<g id="node50" class="node"><title>3&#45;superman</title>
<ellipse fill="#1a1a1a" stroke="black" cx="501.215" cy="-1584" rx="45.4919" ry="18"/>
<text text-anchor="middle" x="501.215" y="-1580.3" font-family="Times,serif" font-size="14.00">superman</text>
</g>
<!-- super_heroes&#45;Player 3&#45;&#45;3&#45;superman -->
<g id="edge49" class="edge"><title>super_heroes&#45;Player 3&#45;&#45;3&#45;superman</title>
<path fill="none" stroke="black" d="M398.959,-1603.91C417.715,-1600.22 440.694,-1595.7 460.017,-1591.9"/>
</g>
<!-- 3&#45;spiderman -->
<g id="node51" class="node"><title>3&#45;spiderman</title>
<ellipse fill="#cccccc" stroke="black" cx="501.215" cy="-1530" rx="48.1917" ry="18"/>
<text text-anchor="middle" x="501.215" y="-1526.3" font-family="Times,serif" font-size="14.00">spiderman</text>
</g>
<!-- super_heroes&#45;Player 3&#45;&#45;3&#45;spiderman -->
<g id="edge50" class="edge"><title>super_heroes&#45;Player 3&#45;&#45;3&#45;spiderman</title>
<path fill="none" stroke="black" d="M382.242,-1595.36C397.015,-1583.87 418.166,-1568.36 438.171,-1557 447.263,-1551.84 457.532,-1547 467.061,-1542.89"/>
</g>
<!-- 4&#45;noobnoob -->
<g id="node52" class="node"><title>4&#45;noobnoob</title>
<ellipse fill="green" stroke="black" cx="501.215" cy="-1476" rx="46.2923" ry="18"/>
<text text-anchor="middle" x="501.215" y="-1472.3" font-family="Times,serif" font-size="14.00">noobnoob</text>
</g>
<!-- super_heroes&#45;Player 4&#45;&#45;4&#45;noobnoob -->
<g id="edge51" class="edge"><title>super_heroes&#45;Player 4&#45;&#45;4&#45;noobnoob</title>
<path fill="none" stroke="black" d="M392.675,-1433.72C414.923,-1442.46 445.287,-1454.4 468.077,-1463.36"/>
</g>
<!-- 4&#45;batman -->
<g id="node53" class="node"><title>4&#45;batman</title>
<ellipse fill="#1a1a1a" stroke="black" cx="501.215" cy="-1422" rx="37.0935" ry="18"/>
<text text-anchor="middle" x="501.215" y="-1418.3" font-family="Times,serif" font-size="14.00">batman</text>
</g>
<!-- super_heroes&#45;Player 4&#45;&#45;4&#45;batman -->
<g id="edge52" class="edge"><title>super_heroes&#45;Player 4&#45;&#45;4&#45;batman</title>
<path fill="none" stroke="black" d="M402.231,-1422C421.73,-1422 445.111,-1422 464.143,-1422"/>
</g>
<!-- 4&#45;superman -->
<g id="node54" class="node"><title>4&#45;superman</title>
<ellipse fill="#cccccc" stroke="black" cx="501.215" cy="-1368" rx="45.4919" ry="18"/>
<text text-anchor="middle" x="501.215" y="-1364.3" font-family="Times,serif" font-size="14.00">superman</text>
</g>
<!-- super_heroes&#45;Player 4&#45;&#45;4&#45;superman -->
<g id="edge53" class="edge"><title>super_heroes&#45;Player 4&#45;&#45;4&#45;superman</title>
<path fill="none" stroke="black" d="M392.675,-1410.28C414.923,-1401.54 445.287,-1389.6 468.077,-1380.64"/>
</g>
<!-- 4&#45;spiderman -->
<g id="node55" class="node"><title>4&#45;spiderman</title>
<ellipse fill="#1a1a1a" stroke="black" cx="501.215" cy="-1314" rx="48.1917" ry="18"/>
<text text-anchor="middle" x="501.215" y="-1310.3" font-family="Times,serif" font-size="14.00">spiderman</text>
</g>
<!-- super_heroes&#45;Player 4&#45;&#45;4&#45;spiderman -->
<g id="edge54" class="edge"><title>super_heroes&#45;Player 4&#45;&#45;4&#45;spiderman</title>
<path fill="none" stroke="black" d="M375.354,-1404.86C389.088,-1386.98 412.63,-1359.09 438.171,-1341 446.416,-1335.16 456.123,-1330.2 465.38,-1326.18"/>
</g>
<!-- 5&#45;noobnoob -->
<g id="node56" class="node"><title>5&#45;noobnoob</title>
<ellipse fill="#1a1a1a" stroke="black" cx="501.215" cy="-1260" rx="46.2923" ry="18"/>
<text text-anchor="middle" x="501.215" y="-1256.3" font-family="Times,serif" font-size="14.00">noobnoob</text>
</g>
<!-- super_heroes&#45;Player 5&#45;&#45;5&#45;noobnoob -->
<g id="edge55" class="edge"><title>super_heroes&#45;Player 5&#45;&#45;5&#45;noobnoob</title>
<path fill="none" stroke="black" d="M392.675,-1217.72C414.923,-1226.46 445.287,-1238.4 468.077,-1247.36"/>
</g>
<!-- 5&#45;batman -->
<g id="node57" class="node"><title>5&#45;batman</title>
<ellipse fill="#1a1a1a" stroke="black" cx="501.215" cy="-1206" rx="37.0935" ry="18"/>
<text text-anchor="middle" x="501.215" y="-1202.3" font-family="Times,serif" font-size="14.00">batman</text>
</g>
<!-- super_heroes&#45;Player 5&#45;&#45;5&#45;batman -->
<g id="edge56" class="edge"><title>super_heroes&#45;Player 5&#45;&#45;5&#45;batman</title>
<path fill="none" stroke="black" d="M402.231,-1206C421.73,-1206 445.111,-1206 464.143,-1206"/>
</g>
<!-- 5&#45;superman -->
<g id="node58" class="node"><title>5&#45;superman</title>
<ellipse fill="#1a1a1a" stroke="black" cx="501.215" cy="-1152" rx="45.4919" ry="18"/>
<text text-anchor="middle" x="501.215" y="-1148.3" font-family="Times,serif" font-size="14.00">superman</text>
</g>
<!-- super_heroes&#45;Player 5&#45;&#45;5&#45;superman -->
<g id="edge57" class="edge"><title>super_heroes&#45;Player 5&#45;&#45;5&#45;superman</title>
<path fill="none" stroke="black" d="M392.675,-1194.28C414.923,-1185.54 445.287,-1173.6 468.077,-1164.64"/>
</g>
<!-- 5&#45;spiderman -->
<g id="node59" class="node"><title>5&#45;spiderman</title>
<ellipse fill="#1a1a1a" stroke="black" cx="501.215" cy="-1098" rx="48.1917" ry="18"/>
<text text-anchor="middle" x="501.215" y="-1094.3" font-family="Times,serif" font-size="14.00">spiderman</text>
</g>
<!-- super_heroes&#45;Player 5&#45;&#45;5&#45;spiderman -->
<g id="edge58" class="edge"><title>super_heroes&#45;Player 5&#45;&#45;5&#45;spiderman</title>
<path fill="none" stroke="black" d="M375.354,-1188.86C389.088,-1170.98 412.63,-1143.09 438.171,-1125 446.416,-1119.16 456.123,-1114.2 465.38,-1110.18"/>
</g>
<!-- farm_animals&#45;Player 1 -->
<g id="node15" class="node"><title>farm_animals&#45;Player 1</title>
<ellipse fill="none" stroke="black" cx="361.874" cy="-936" rx="40.0939" ry="18"/>
<text text-anchor="middle" x="361.874" y="-932.3" font-family="Times,serif" font-size="14.00">Player 1</text>
</g>
<!-- farm_animals&#45;&#45;farm_animals&#45;Player 1 -->
<g id="edge14" class="edge"><title>farm_animals&#45;&#45;farm_animals&#45;Player 1</title>
<path fill="none" stroke="black" d="M234.969,-657.132C258.965,-710.28 328.937,-865.262 352.795,-918.106"/>
</g>
<!-- farm_animals&#45;Player 2 -->
<g id="node16" class="node"><title>farm_animals&#45;Player 2</title>
<ellipse fill="none" stroke="black" cx="361.874" cy="-720" rx="40.0939" ry="18"/>
<text text-anchor="middle" x="361.874" y="-716.3" font-family="Times,serif" font-size="14.00">Player 2</text>
</g>
<!-- farm_animals&#45;&#45;farm_animals&#45;Player 2 -->
<g id="edge15" class="edge"><title>farm_animals&#45;&#45;farm_animals&#45;Player 2</title>
<path fill="none" stroke="black" d="M253.275,-655.003C277.699,-669.757 313.624,-691.458 337.133,-705.659"/>
</g>
<!-- farm_animals&#45;Player 3 -->
<g id="node17" class="node"><title>farm_animals&#45;Player 3</title>
<ellipse fill="none" stroke="black" cx="361.874" cy="-558" rx="40.0939" ry="18"/>
<text text-anchor="middle" x="361.874" y="-554.3" font-family="Times,serif" font-size="14.00">Player 3</text>
</g>
<!-- farm_animals&#45;&#45;farm_animals&#45;Player 3 -->
<g id="edge16" class="edge"><title>farm_animals&#45;&#45;farm_animals&#45;Player 3</title>
<path fill="none" stroke="black" d="M253.275,-622.997C277.699,-608.243 313.624,-586.542 337.133,-572.341"/>
</g>
<!-- farm_animals&#45;Player 4 -->
<g id="node18" class="node"><title>farm_animals&#45;Player 4</title>
<ellipse fill="none" stroke="black" cx="361.874" cy="-342" rx="40.0939" ry="18"/>
<text text-anchor="middle" x="361.874" y="-338.3" font-family="Times,serif" font-size="14.00">Player 4</text>
</g>
<!-- farm_animals&#45;&#45;farm_animals&#45;Player 4 -->
<g id="edge17" class="edge"><title>farm_animals&#45;&#45;farm_animals&#45;Player 4</title>
<path fill="none" stroke="black" d="M234.969,-620.868C258.965,-567.72 328.937,-412.738 352.795,-359.894"/>
</g>
<!-- farm_animals&#45;Player 5 -->
<g id="node19" class="node"><title>farm_animals&#45;Player 5</title>
<ellipse fill="none" stroke="black" cx="361.874" cy="-126" rx="40.0939" ry="18"/>
<text text-anchor="middle" x="361.874" y="-122.3" font-family="Times,serif" font-size="14.00">Player 5</text>
</g>
<!-- farm_animals&#45;&#45;farm_animals&#45;Player 5 -->
<g id="edge18" class="edge"><title>farm_animals&#45;&#45;farm_animals&#45;Player 5</title>
<path fill="none" stroke="black" d="M231.477,-621.043C252.197,-541.773 335.366,-223.589 356.149,-144.077"/>
</g>
<!-- 1&#45;a_fat_cow -->
<g id="node60" class="node"><title>1&#45;a_fat_cow</title>
<ellipse fill="#1a1a1a" stroke="black" cx="501.215" cy="-1044" rx="47.3916" ry="18"/>
<text text-anchor="middle" x="501.215" y="-1040.3" font-family="Times,serif" font-size="14.00">a_fat_cow</text>
</g>
<!-- farm_animals&#45;Player 1&#45;&#45;1&#45;a_fat_cow -->
<g id="edge59" class="edge"><title>farm_animals&#45;Player 1&#45;&#45;1&#45;a_fat_cow</title>
<path fill="none" stroke="black" d="M375.354,-953.142C389.088,-971.021 412.63,-998.914 438.171,-1017 446.511,-1022.91 456.349,-1027.92 465.702,-1031.96"/>
</g>
<!-- 1&#45;crazy_pig -->
<g id="node61" class="node"><title>1&#45;crazy_pig</title>
<ellipse fill="#1a1a1a" stroke="black" cx="501.215" cy="-990" rx="45.4919" ry="18"/>
<text text-anchor="middle" x="501.215" y="-986.3" font-family="Times,serif" font-size="14.00">crazy_pig</text>
</g>
<!-- farm_animals&#45;Player 1&#45;&#45;1&#45;crazy_pig -->
<g id="edge60" class="edge"><title>farm_animals&#45;Player 1&#45;&#45;1&#45;crazy_pig</title>
<path fill="none" stroke="black" d="M392.675,-947.717C414.923,-956.465 445.287,-968.403 468.077,-977.364"/>
</g>
<!-- 1&#45;smelly_goat -->
<g id="node62" class="node"><title>1&#45;smelly_goat</title>
<ellipse fill="#1a1a1a" stroke="black" cx="501.215" cy="-936" rx="53.8905" ry="18"/>
<text text-anchor="middle" x="501.215" y="-932.3" font-family="Times,serif" font-size="14.00">smelly_goat</text>
</g>
<!-- farm_animals&#45;Player 1&#45;&#45;1&#45;smelly_goat -->
<g id="edge61" class="edge"><title>farm_animals&#45;Player 1&#45;&#45;1&#45;smelly_goat</title>
<path fill="none" stroke="black" d="M402.231,-936C416.181,-936 432.119,-936 447.03,-936"/>
</g>
<!-- 1&#45;proud_chicken -->
<g id="node63" class="node"><title>1&#45;proud_chicken</title>
<ellipse fill="#cccccc" stroke="black" cx="501.215" cy="-882" rx="63.0888" ry="18"/>
<text text-anchor="middle" x="501.215" y="-878.3" font-family="Times,serif" font-size="14.00">proud_chicken</text>
</g>
<!-- farm_animals&#45;Player 1&#45;&#45;1&#45;proud_chicken -->
<g id="edge62" class="edge"><title>farm_animals&#45;Player 1&#45;&#45;1&#45;proud_chicken</title>
<path fill="none" stroke="black" d="M392.675,-924.283C413.424,-916.125 441.232,-905.191 463.372,-896.486"/>
</g>
<!-- 2&#45;a_fat_cow -->
<g id="node64" class="node"><title>2&#45;a_fat_cow</title>
<ellipse fill="#1a1a1a" stroke="black" cx="501.215" cy="-828" rx="47.3916" ry="18"/>
<text text-anchor="middle" x="501.215" y="-824.3" font-family="Times,serif" font-size="14.00">a_fat_cow</text>
</g>
<!-- farm_animals&#45;Player 2&#45;&#45;2&#45;a_fat_cow -->
<g id="edge63" class="edge"><title>farm_animals&#45;Player 2&#45;&#45;2&#45;a_fat_cow</title>
<path fill="none" stroke="black" d="M375.354,-737.142C389.088,-755.021 412.63,-782.914 438.171,-801 446.511,-806.906 456.349,-811.917 465.702,-815.958"/>
</g>
<!-- 2&#45;crazy_pig -->
<g id="node65" class="node"><title>2&#45;crazy_pig</title>
<ellipse fill="#1a1a1a" stroke="black" cx="501.215" cy="-774" rx="45.4919" ry="18"/>
<text text-anchor="middle" x="501.215" y="-770.3" font-family="Times,serif" font-size="14.00">crazy_pig</text>
</g>
<!-- farm_animals&#45;Player 2&#45;&#45;2&#45;crazy_pig -->
<g id="edge64" class="edge"><title>farm_animals&#45;Player 2&#45;&#45;2&#45;crazy_pig</title>
<path fill="none" stroke="black" d="M392.675,-731.717C414.923,-740.465 445.287,-752.403 468.077,-761.364"/>
</g>
<!-- 2&#45;smelly_goat -->
<g id="node66" class="node"><title>2&#45;smelly_goat</title>
<ellipse fill="#1a1a1a" stroke="black" cx="501.215" cy="-720" rx="53.8905" ry="18"/>
<text text-anchor="middle" x="501.215" y="-716.3" font-family="Times,serif" font-size="14.00">smelly_goat</text>
</g>
<!-- farm_animals&#45;Player 2&#45;&#45;2&#45;smelly_goat -->
<g id="edge65" class="edge"><title>farm_animals&#45;Player 2&#45;&#45;2&#45;smelly_goat</title>
<path fill="none" stroke="black" d="M402.231,-720C416.181,-720 432.119,-720 447.03,-720"/>
</g>
<!-- 2&#45;proud_chicken -->
<g id="node67" class="node"><title>2&#45;proud_chicken</title>
<ellipse fill="#cccccc" stroke="black" cx="501.215" cy="-666" rx="63.0888" ry="18"/>
<text text-anchor="middle" x="501.215" y="-662.3" font-family="Times,serif" font-size="14.00">proud_chicken</text>
</g>
<!-- farm_animals&#45;Player 2&#45;&#45;2&#45;proud_chicken -->
<g id="edge66" class="edge"><title>farm_animals&#45;Player 2&#45;&#45;2&#45;proud_chicken</title>
<path fill="none" stroke="black" d="M392.675,-708.283C413.424,-700.125 441.232,-689.191 463.372,-680.486"/>
</g>
<!-- 3&#45;a_fat_cow -->
<g id="node68" class="node"><title>3&#45;a_fat_cow</title>
<ellipse fill="#1a1a1a" stroke="black" cx="501.215" cy="-612" rx="47.3916" ry="18"/>
<text text-anchor="middle" x="501.215" y="-608.3" font-family="Times,serif" font-size="14.00">a_fat_cow</text>
</g>
<!-- farm_animals&#45;Player 3&#45;&#45;3&#45;a_fat_cow -->
<g id="edge67" class="edge"><title>farm_animals&#45;Player 3&#45;&#45;3&#45;a_fat_cow</title>
<path fill="none" stroke="black" d="M392.675,-569.717C414.765,-578.403 444.856,-590.234 467.591,-599.173"/>
</g>
<!-- 3&#45;crazy_pig -->
<g id="node69" class="node"><title>3&#45;crazy_pig</title>
<ellipse fill="#1a1a1a" stroke="black" cx="501.215" cy="-558" rx="45.4919" ry="18"/>
<text text-anchor="middle" x="501.215" y="-554.3" font-family="Times,serif" font-size="14.00">crazy_pig</text>
</g>
<!-- farm_animals&#45;Player 3&#45;&#45;3&#45;crazy_pig -->
<g id="edge68" class="edge"><title>farm_animals&#45;Player 3&#45;&#45;3&#45;crazy_pig</title>
<path fill="none" stroke="black" d="M402.231,-558C418.876,-558 438.351,-558 455.534,-558"/>
</g>
<!-- 3&#45;smelly_goat -->
<g id="node70" class="node"><title>3&#45;smelly_goat</title>
<ellipse fill="#1a1a1a" stroke="black" cx="501.215" cy="-504" rx="53.8905" ry="18"/>
<text text-anchor="middle" x="501.215" y="-500.3" font-family="Times,serif" font-size="14.00">smelly_goat</text>
</g>
<!-- farm_animals&#45;Player 3&#45;&#45;3&#45;smelly_goat -->
<g id="edge69" class="edge"><title>farm_animals&#45;Player 3&#45;&#45;3&#45;smelly_goat</title>
<path fill="none" stroke="black" d="M392.675,-546.283C414.134,-537.846 443.143,-526.44 465.625,-517.6"/>
</g>
<!-- 3&#45;proud_chicken -->
<g id="node71" class="node"><title>3&#45;proud_chicken</title>
<ellipse fill="#1a1a1a" stroke="black" cx="501.215" cy="-450" rx="63.0888" ry="18"/>
<text text-anchor="middle" x="501.215" y="-446.3" font-family="Times,serif" font-size="14.00">proud_chicken</text>
</g>
<!-- farm_animals&#45;Player 3&#45;&#45;3&#45;proud_chicken -->
<g id="edge70" class="edge"><title>farm_animals&#45;Player 3&#45;&#45;3&#45;proud_chicken</title>
<path fill="none" stroke="black" d="M375.354,-540.858C389.088,-522.979 412.63,-495.086 438.171,-477 445.169,-472.044 453.221,-467.719 461.157,-464.068"/>
</g>
<!-- 4&#45;a_fat_cow -->
<g id="node72" class="node"><title>4&#45;a_fat_cow</title>
<ellipse fill="#1a1a1a" stroke="black" cx="501.215" cy="-396" rx="47.3916" ry="18"/>
<text text-anchor="middle" x="501.215" y="-392.3" font-family="Times,serif" font-size="14.00">a_fat_cow</text>
</g>
<!-- farm_animals&#45;Player 4&#45;&#45;4&#45;a_fat_cow -->
<g id="edge71" class="edge"><title>farm_animals&#45;Player 4&#45;&#45;4&#45;a_fat_cow</title>
<path fill="none" stroke="black" d="M392.675,-353.717C414.765,-362.403 444.856,-374.234 467.591,-383.173"/>
</g>
<!-- 4&#45;crazy_pig -->
<g id="node73" class="node"><title>4&#45;crazy_pig</title>
<ellipse fill="#1a1a1a" stroke="black" cx="501.215" cy="-342" rx="45.4919" ry="18"/>
<text text-anchor="middle" x="501.215" y="-338.3" font-family="Times,serif" font-size="14.00">crazy_pig</text>
</g>
<!-- farm_animals&#45;Player 4&#45;&#45;4&#45;crazy_pig -->
<g id="edge72" class="edge"><title>farm_animals&#45;Player 4&#45;&#45;4&#45;crazy_pig</title>
<path fill="none" stroke="black" d="M402.231,-342C418.876,-342 438.351,-342 455.534,-342"/>
</g>
<!-- 4&#45;smelly_goat -->
<g id="node74" class="node"><title>4&#45;smelly_goat</title>
<ellipse fill="#1a1a1a" stroke="black" cx="501.215" cy="-288" rx="53.8905" ry="18"/>
<text text-anchor="middle" x="501.215" y="-284.3" font-family="Times,serif" font-size="14.00">smelly_goat</text>
</g>
<!-- farm_animals&#45;Player 4&#45;&#45;4&#45;smelly_goat -->
<g id="edge73" class="edge"><title>farm_animals&#45;Player 4&#45;&#45;4&#45;smelly_goat</title>
<path fill="none" stroke="black" d="M392.675,-330.283C414.134,-321.846 443.143,-310.44 465.625,-301.6"/>
</g>
<!-- 4&#45;proud_chicken -->
<g id="node75" class="node"><title>4&#45;proud_chicken</title>
<ellipse fill="#1a1a1a" stroke="black" cx="501.215" cy="-234" rx="63.0888" ry="18"/>
<text text-anchor="middle" x="501.215" y="-230.3" font-family="Times,serif" font-size="14.00">proud_chicken</text>
</g>
<!-- farm_animals&#45;Player 4&#45;&#45;4&#45;proud_chicken -->
<g id="edge74" class="edge"><title>farm_animals&#45;Player 4&#45;&#45;4&#45;proud_chicken</title>
<path fill="none" stroke="black" d="M375.354,-324.858C389.088,-306.979 412.63,-279.086 438.171,-261 445.169,-256.044 453.221,-251.719 461.157,-248.068"/>
</g>
<!-- 5&#45;a_fat_cow -->
<g id="node76" class="node"><title>5&#45;a_fat_cow</title>
<ellipse fill="green" stroke="black" cx="501.215" cy="-180" rx="47.3916" ry="18"/>
<text text-anchor="middle" x="501.215" y="-176.3" font-family="Times,serif" font-size="14.00">a_fat_cow</text>
</g>
<!-- farm_animals&#45;Player 5&#45;&#45;5&#45;a_fat_cow -->
<g id="edge75" class="edge"><title>farm_animals&#45;Player 5&#45;&#45;5&#45;a_fat_cow</title>
<path fill="none" stroke="black" d="M392.675,-137.717C414.765,-146.403 444.856,-158.234 467.591,-167.173"/>
</g>
<!-- 5&#45;crazy_pig -->
<g id="node77" class="node"><title>5&#45;crazy_pig</title>
<ellipse fill="green" stroke="black" cx="501.215" cy="-126" rx="45.4919" ry="18"/>
<text text-anchor="middle" x="501.215" y="-122.3" font-family="Times,serif" font-size="14.00">crazy_pig</text>
</g>
<!-- farm_animals&#45;Player 5&#45;&#45;5&#45;crazy_pig -->
<g id="edge76" class="edge"><title>farm_animals&#45;Player 5&#45;&#45;5&#45;crazy_pig</title>
<path fill="none" stroke="black" d="M402.231,-126C418.876,-126 438.351,-126 455.534,-126"/>
</g>
<!-- 5&#45;smelly_goat -->
<g id="node78" class="node"><title>5&#45;smelly_goat</title>
<ellipse fill="green" stroke="black" cx="501.215" cy="-72" rx="53.8905" ry="18"/>
<text text-anchor="middle" x="501.215" y="-68.3" font-family="Times,serif" font-size="14.00">smelly_goat</text>
</g>
<!-- farm_animals&#45;Player 5&#45;&#45;5&#45;smelly_goat -->
<g id="edge77" class="edge"><title>farm_animals&#45;Player 5&#45;&#45;5&#45;smelly_goat</title>
<path fill="none" stroke="black" d="M392.675,-114.283C414.134,-105.846 443.143,-94.4396 465.625,-85.6003"/>
</g>
<!-- 5&#45;proud_chicken -->
<g id="node79" class="node"><title>5&#45;proud_chicken</title>
<ellipse fill="#1a1a1a" stroke="black" cx="501.215" cy="-18" rx="63.0888" ry="18"/>
<text text-anchor="middle" x="501.215" y="-14.3" font-family="Times,serif" font-size="14.00">proud_chicken</text>
</g>
<!-- farm_animals&#45;Player 5&#45;&#45;5&#45;proud_chicken -->
<g id="edge78" class="edge"><title>farm_animals&#45;Player 5&#45;&#45;5&#45;proud_chicken</title>
<path fill="none" stroke="black" d="M375.354,-108.858C389.088,-90.979 412.63,-63.0862 438.171,-45 445.169,-40.0441 453.221,-35.7191 461.157,-32.0683"/>
</g>
</g>
</svg>
