<?xml version="1.0" encoding="UTF-8" standalone="no"?>
<!DOCTYPE svg PUBLIC "-//W3C//DTD SVG 1.1//EN"
 "http://www.w3.org/Graphics/SVG/1.1/DTD/svg11.dtd">
<!-- Generated by graphviz version 2.38.0 (20140413.2041)
 -->
<!-- Title: round&#45;21 Pages: 1 -->
<svg width="572pt" height="1934pt"
 viewBox="0.00 0.00 572.26 1934.00" xmlns="http://www.w3.org/2000/svg" xmlns:xlink="http://www.w3.org/1999/xlink">
<g id="graph0" class="graph" transform="scale(1 1) rotate(0) translate(4 1930)">
<title>round&#45;21</title>
<polygon fill="white" stroke="none" points="-4,4 -4,-1930 568.26,-1930 568.26,4 -4,4"/>
<!-- Player 2 model -->
<g id="node1" class="node"><title>Player 2 model</title>
<ellipse fill="none" stroke="black" cx="64.9942" cy="-963" rx="64.9885" ry="18"/>
<text text-anchor="middle" x="64.9942" y="-959.3" font-family="Times,serif" font-size="14.00">Player 2 model</text>
</g>
<!-- farm_animals -->
<g id="node2" class="node"><title>farm_animals</title>
<ellipse fill="none" stroke="black" cx="225.783" cy="-1503" rx="59.5901" ry="18"/>
<text text-anchor="middle" x="225.783" y="-1499.3" font-family="Times,serif" font-size="14.00">farm_animals</text>
</g>
<!-- Player 2 model&#45;&#45;farm_animals -->
<g id="edge1" class="edge"><title>Player 2 model&#45;&#45;farm_animals</title>
<path fill="none" stroke="black" d="M71.2774,-980.967C95.4395,-1063.14 195.277,-1402.66 219.48,-1484.97"/>
</g>
<!-- super_heroes -->
<g id="node6" class="node"><title>super_heroes</title>
<ellipse fill="none" stroke="black" cx="225.783" cy="-963" rx="57.3905" ry="18"/>
<text text-anchor="middle" x="225.783" y="-959.3" font-family="Times,serif" font-size="14.00">super_heroes</text>
</g>
<!-- Player 2 model&#45;&#45;super_heroes -->
<g id="edge5" class="edge"><title>Player 2 model&#45;&#45;super_heroes</title>
<path fill="none" stroke="black" d="M130.122,-963C142.775,-963 155.965,-963 168.342,-963"/>
</g>
<!-- healthy_food -->
<g id="node10" class="node"><title>healthy_food</title>
<ellipse fill="none" stroke="black" cx="225.783" cy="-423" rx="57.3905" ry="18"/>
<text text-anchor="middle" x="225.783" y="-419.3" font-family="Times,serif" font-size="14.00">healthy_food</text>
</g>
<!-- Player 2 model&#45;&#45;healthy_food -->
<g id="edge9" class="edge"><title>Player 2 model&#45;&#45;healthy_food</title>
<path fill="none" stroke="black" d="M71.2774,-945.033C95.4395,-862.864 195.277,-523.344 219.48,-441.034"/>
</g>
<!-- farm_animals&#45;Player 1 -->
<g id="node3" class="node"><title>farm_animals&#45;Player 1</title>
<ellipse fill="none" stroke="black" cx="361.874" cy="-1800" rx="40.0939" ry="18"/>
<text text-anchor="middle" x="361.874" y="-1796.3" font-family="Times,serif" font-size="14.00">Player 1</text>
</g>
<!-- farm_animals&#45;&#45;farm_animals&#45;Player 1 -->
<g id="edge2" class="edge"><title>farm_animals&#45;&#45;farm_animals&#45;Player 1</title>
<path fill="none" stroke="black" d="M234.969,-1521.13C258.965,-1574.28 328.937,-1729.26 352.795,-1782.11"/>
</g>
<!-- farm_animals&#45;Player 2 -->
<g id="node4" class="node"><title>farm_animals&#45;Player 2</title>
<ellipse fill="none" stroke="black" cx="361.874" cy="-1584" rx="40.0939" ry="18"/>
<text text-anchor="middle" x="361.874" y="-1580.3" font-family="Times,serif" font-size="14.00">Player 2</text>
</g>
<!-- farm_animals&#45;&#45;farm_animals&#45;Player 2 -->
<g id="edge3" class="edge"><title>farm_animals&#45;&#45;farm_animals&#45;Player 2</title>
<path fill="none" stroke="black" d="M253.275,-1519C277.699,-1533.76 313.624,-1555.46 337.133,-1569.66"/>
</g>
<!-- farm_animals&#45;Player 3 -->
<g id="node5" class="node"><title>farm_animals&#45;Player 3</title>
<ellipse fill="none" stroke="black" cx="361.874" cy="-1422" rx="40.0939" ry="18"/>
<text text-anchor="middle" x="361.874" y="-1418.3" font-family="Times,serif" font-size="14.00">Player 3</text>
</g>
<!-- farm_animals&#45;&#45;farm_animals&#45;Player 3 -->
<g id="edge4" class="edge"><title>farm_animals&#45;&#45;farm_animals&#45;Player 3</title>
<path fill="none" stroke="black" d="M253.275,-1487C277.699,-1472.24 313.624,-1450.54 337.133,-1436.34"/>
</g>
<!-- 1&#45;a_fat_cow -->
<g id="node14" class="node"><title>1&#45;a_fat_cow</title>
<ellipse fill="#cccccc" stroke="black" cx="501.215" cy="-1908" rx="47.3916" ry="18"/>
<text text-anchor="middle" x="501.215" y="-1904.3" font-family="Times,serif" font-size="14.00">a_fat_cow</text>
</g>
<!-- farm_animals&#45;Player 1&#45;&#45;1&#45;a_fat_cow -->
<g id="edge13" class="edge"><title>farm_animals&#45;Player 1&#45;&#45;1&#45;a_fat_cow</title>
<path fill="none" stroke="black" d="M375.354,-1817.14C389.088,-1835.02 412.63,-1862.91 438.171,-1881 446.511,-1886.91 456.349,-1891.92 465.702,-1895.96"/>
</g>
<!-- 1&#45;smelly_goat -->
<g id="node15" class="node"><title>1&#45;smelly_goat</title>
<ellipse fill="green" stroke="black" cx="501.215" cy="-1854" rx="53.8905" ry="18"/>
<text text-anchor="middle" x="501.215" y="-1850.3" font-family="Times,serif" font-size="14.00">smelly_goat</text>
</g>
<!-- farm_animals&#45;Player 1&#45;&#45;1&#45;smelly_goat -->
<g id="edge14" class="edge"><title>farm_animals&#45;Player 1&#45;&#45;1&#45;smelly_goat</title>
<path fill="none" stroke="black" d="M392.675,-1811.72C414.134,-1820.15 443.143,-1831.56 465.625,-1840.4"/>
</g>
<!-- 1&#45;proud_chicken -->
<g id="node16" class="node"><title>1&#45;proud_chicken</title>
<ellipse fill="#1a1a1a" stroke="black" cx="501.215" cy="-1800" rx="63.0888" ry="18"/>
<text text-anchor="middle" x="501.215" y="-1796.3" font-family="Times,serif" font-size="14.00">proud_chicken</text>
</g>
<!-- farm_animals&#45;Player 1&#45;&#45;1&#45;proud_chicken -->
<g id="edge15" class="edge"><title>farm_animals&#45;Player 1&#45;&#45;1&#45;proud_chicken</title>
<path fill="none" stroke="black" d="M402.231,-1800C413.407,-1800 425.859,-1800 438.036,-1800"/>
</g>
<!-- 1&#45;crazy_pig -->
<g id="node17" class="node"><title>1&#45;crazy_pig</title>
<ellipse fill="#cccccc" stroke="black" cx="501.215" cy="-1746" rx="45.4919" ry="18"/>
<text text-anchor="middle" x="501.215" y="-1742.3" font-family="Times,serif" font-size="14.00">crazy_pig</text>
</g>
<!-- farm_animals&#45;Player 1&#45;&#45;1&#45;crazy_pig -->
<g id="edge16" class="edge"><title>farm_animals&#45;Player 1&#45;&#45;1&#45;crazy_pig</title>
<path fill="none" stroke="black" d="M392.675,-1788.28C414.923,-1779.54 445.287,-1767.6 468.077,-1758.64"/>
</g>
<!-- 2&#45;a_fat_cow -->
<g id="node18" class="node"><title>2&#45;a_fat_cow</title>
<ellipse fill="#1a1a1a" stroke="black" cx="501.215" cy="-1692" rx="47.3916" ry="18"/>
<text text-anchor="middle" x="501.215" y="-1688.3" font-family="Times,serif" font-size="14.00">a_fat_cow</text>
</g>
<!-- farm_animals&#45;Player 2&#45;&#45;2&#45;a_fat_cow -->
<g id="edge17" class="edge"><title>farm_animals&#45;Player 2&#45;&#45;2&#45;a_fat_cow</title>
<path fill="none" stroke="black" d="M375.354,-1601.14C389.088,-1619.02 412.63,-1646.91 438.171,-1665 446.511,-1670.91 456.349,-1675.92 465.702,-1679.96"/>
</g>
<!-- 2&#45;smelly_goat -->
<g id="node19" class="node"><title>2&#45;smelly_goat</title>
<ellipse fill="#1a1a1a" stroke="black" cx="501.215" cy="-1638" rx="53.8905" ry="18"/>
<text text-anchor="middle" x="501.215" y="-1634.3" font-family="Times,serif" font-size="14.00">smelly_goat</text>
</g>
<!-- farm_animals&#45;Player 2&#45;&#45;2&#45;smelly_goat -->
<g id="edge18" class="edge"><title>farm_animals&#45;Player 2&#45;&#45;2&#45;smelly_goat</title>
<path fill="none" stroke="black" d="M392.675,-1595.72C414.134,-1604.15 443.143,-1615.56 465.625,-1624.4"/>
</g>
<!-- 2&#45;proud_chicken -->
<g id="node20" class="node"><title>2&#45;proud_chicken</title>
<ellipse fill="#1a1a1a" stroke="black" cx="501.215" cy="-1584" rx="63.0888" ry="18"/>
<text text-anchor="middle" x="501.215" y="-1580.3" font-family="Times,serif" font-size="14.00">proud_chicken</text>
</g>
<!-- farm_animals&#45;Player 2&#45;&#45;2&#45;proud_chicken -->
<g id="edge19" class="edge"><title>farm_animals&#45;Player 2&#45;&#45;2&#45;proud_chicken</title>
<path fill="none" stroke="black" d="M402.231,-1584C413.407,-1584 425.859,-1584 438.036,-1584"/>
</g>
<!-- 2&#45;crazy_pig -->
<g id="node21" class="node"><title>2&#45;crazy_pig</title>
<ellipse fill="#1a1a1a" stroke="black" cx="501.215" cy="-1530" rx="45.4919" ry="18"/>
<text text-anchor="middle" x="501.215" y="-1526.3" font-family="Times,serif" font-size="14.00">crazy_pig</text>
</g>
<!-- farm_animals&#45;Player 2&#45;&#45;2&#45;crazy_pig -->
<g id="edge20" class="edge"><title>farm_animals&#45;Player 2&#45;&#45;2&#45;crazy_pig</title>
<path fill="none" stroke="black" d="M392.675,-1572.28C414.923,-1563.54 445.287,-1551.6 468.077,-1542.64"/>
</g>
<!-- 3&#45;a_fat_cow -->
<g id="node22" class="node"><title>3&#45;a_fat_cow</title>
<ellipse fill="#1a1a1a" stroke="black" cx="501.215" cy="-1476" rx="47.3916" ry="18"/>
<text text-anchor="middle" x="501.215" y="-1472.3" font-family="Times,serif" font-size="14.00">a_fat_cow</text>
</g>
<!-- farm_animals&#45;Player 3&#45;&#45;3&#45;a_fat_cow -->
<g id="edge21" class="edge"><title>farm_animals&#45;Player 3&#45;&#45;3&#45;a_fat_cow</title>
<path fill="none" stroke="black" d="M392.675,-1433.72C414.765,-1442.4 444.856,-1454.23 467.591,-1463.17"/>
</g>
<!-- 3&#45;smelly_goat -->
<g id="node23" class="node"><title>3&#45;smelly_goat</title>
<ellipse fill="#1a1a1a" stroke="black" cx="501.215" cy="-1422" rx="53.8905" ry="18"/>
<text text-anchor="middle" x="501.215" y="-1418.3" font-family="Times,serif" font-size="14.00">smelly_goat</text>
</g>
<!-- farm_animals&#45;Player 3&#45;&#45;3&#45;smelly_goat -->
<g id="edge22" class="edge"><title>farm_animals&#45;Player 3&#45;&#45;3&#45;smelly_goat</title>
<path fill="none" stroke="black" d="M402.231,-1422C416.181,-1422 432.119,-1422 447.03,-1422"/>
</g>
<!-- 3&#45;proud_chicken -->
<g id="node24" class="node"><title>3&#45;proud_chicken</title>
<ellipse fill="green" stroke="black" cx="501.215" cy="-1368" rx="63.0888" ry="18"/>
<text text-anchor="middle" x="501.215" y="-1364.3" font-family="Times,serif" font-size="14.00">proud_chicken</text>
</g>
<!-- farm_animals&#45;Player 3&#45;&#45;3&#45;proud_chicken -->
<g id="edge23" class="edge"><title>farm_animals&#45;Player 3&#45;&#45;3&#45;proud_chicken</title>
<path fill="none" stroke="black" d="M392.675,-1410.28C413.424,-1402.12 441.232,-1391.19 463.372,-1382.49"/>
</g>
<!-- 3&#45;crazy_pig -->
<g id="node25" class="node"><title>3&#45;crazy_pig</title>
<ellipse fill="#1a1a1a" stroke="black" cx="501.215" cy="-1314" rx="45.4919" ry="18"/>
<text text-anchor="middle" x="501.215" y="-1310.3" font-family="Times,serif" font-size="14.00">crazy_pig</text>
</g>
<!-- farm_animals&#45;Player 3&#45;&#45;3&#45;crazy_pig -->
<g id="edge24" class="edge"><title>farm_animals&#45;Player 3&#45;&#45;3&#45;crazy_pig</title>
<path fill="none" stroke="black" d="M375.354,-1404.86C389.088,-1386.98 412.63,-1359.09 438.171,-1341 446.703,-1334.96 456.802,-1329.85 466.347,-1325.77"/>
</g>
<!-- super_heroes&#45;Player 1 -->
<g id="node7" class="node"><title>super_heroes&#45;Player 1</title>
<ellipse fill="none" stroke="black" cx="361.874" cy="-1152" rx="40.0939" ry="18"/>
<text text-anchor="middle" x="361.874" y="-1148.3" font-family="Times,serif" font-size="14.00">Player 1</text>
</g>
<!-- super_heroes&#45;&#45;super_heroes&#45;Player 1 -->
<g id="edge6" class="edge"><title>super_heroes&#45;&#45;super_heroes&#45;Player 1</title>
<path fill="none" stroke="black" d="M239.398,-980.781C265.15,-1017.08 323.469,-1099.28 348.777,-1134.95"/>
</g>
<!-- super_heroes&#45;Player 2 -->
<g id="node8" class="node"><title>super_heroes&#45;Player 2</title>
<ellipse fill="none" stroke="black" cx="361.874" cy="-963" rx="40.0939" ry="18"/>
<text text-anchor="middle" x="361.874" y="-959.3" font-family="Times,serif" font-size="14.00">Player 2</text>
</g>
<!-- super_heroes&#45;&#45;super_heroes&#45;Player 2 -->
<g id="edge7" class="edge"><title>super_heroes&#45;&#45;super_heroes&#45;Player 2</title>
<path fill="none" stroke="black" d="M283.261,-963C296.145,-963 309.562,-963 321.546,-963"/>
</g>
<!-- super_heroes&#45;Player 3 -->
<g id="node9" class="node"><title>super_heroes&#45;Player 3</title>
<ellipse fill="none" stroke="black" cx="361.874" cy="-774" rx="40.0939" ry="18"/>
<text text-anchor="middle" x="361.874" y="-770.3" font-family="Times,serif" font-size="14.00">Player 3</text>
</g>
<!-- super_heroes&#45;&#45;super_heroes&#45;Player 3 -->
<g id="edge8" class="edge"><title>super_heroes&#45;&#45;super_heroes&#45;Player 3</title>
<path fill="none" stroke="black" d="M239.398,-945.219C265.15,-908.922 323.469,-826.723 348.777,-791.05"/>
</g>
<!-- 1&#45;noobnoob -->
<g id="node26" class="node"><title>1&#45;noobnoob</title>
<ellipse fill="#cccccc" stroke="black" cx="501.215" cy="-1260" rx="46.2923" ry="18"/>
<text text-anchor="middle" x="501.215" y="-1256.3" font-family="Times,serif" font-size="14.00">noobnoob</text>
</g>
<!-- super_heroes&#45;Player 1&#45;&#45;1&#45;noobnoob -->
<g id="edge25" class="edge"><title>super_heroes&#45;Player 1&#45;&#45;1&#45;noobnoob</title>
<path fill="none" stroke="black" d="M375.354,-1169.14C389.088,-1187.02 412.63,-1214.91 438.171,-1233 446.607,-1238.97 456.575,-1244.03 466.025,-1248.1"/>
</g>
<!-- 1&#45;superman -->
<g id="node27" class="node"><title>1&#45;superman</title>
<ellipse fill="green" stroke="black" cx="501.215" cy="-1206" rx="45.4919" ry="18"/>
<text text-anchor="middle" x="501.215" y="-1202.3" font-family="Times,serif" font-size="14.00">superman</text>
</g>
<!-- super_heroes&#45;Player 1&#45;&#45;1&#45;superman -->
<g id="edge26" class="edge"><title>super_heroes&#45;Player 1&#45;&#45;1&#45;superman</title>
<path fill="none" stroke="black" d="M392.675,-1163.72C414.923,-1172.46 445.287,-1184.4 468.077,-1193.36"/>
</g>
<!-- 1&#45;spiderman -->
<g id="node28" class="node"><title>1&#45;spiderman</title>
<ellipse fill="green" stroke="black" cx="501.215" cy="-1152" rx="48.1917" ry="18"/>
<text text-anchor="middle" x="501.215" y="-1148.3" font-family="Times,serif" font-size="14.00">spiderman</text>
</g>
<!-- super_heroes&#45;Player 1&#45;&#45;1&#45;spiderman -->
<g id="edge27" class="edge"><title>super_heroes&#45;Player 1&#45;&#45;1&#45;spiderman</title>
<path fill="none" stroke="black" d="M402.231,-1152C418.084,-1152 436.503,-1152 453.064,-1152"/>
</g>
<!-- 1&#45;batman -->
<g id="node29" class="node"><title>1&#45;batman</title>
<ellipse fill="#1a1a1a" stroke="black" cx="501.215" cy="-1098" rx="37.0935" ry="18"/>
<text text-anchor="middle" x="501.215" y="-1094.3" font-family="Times,serif" font-size="14.00">batman</text>
</g>
<!-- super_heroes&#45;Player 1&#45;&#45;1&#45;batman -->
<g id="edge28" class="edge"><title>super_heroes&#45;Player 1&#45;&#45;1&#45;batman</title>
<path fill="none" stroke="black" d="M392.675,-1140.28C416.185,-1131.04 448.758,-1118.23 471.88,-1109.14"/>
</g>
<!-- 2&#45;noobnoob -->
<g id="node30" class="node"><title>2&#45;noobnoob</title>
<ellipse fill="#1a1a1a" stroke="black" cx="501.215" cy="-1044" rx="46.2923" ry="18"/>
<text text-anchor="middle" x="501.215" y="-1040.3" font-family="Times,serif" font-size="14.00">noobnoob</text>
</g>
<!-- super_heroes&#45;Player 2&#45;&#45;2&#45;noobnoob -->
<g id="edge29" class="edge"><title>super_heroes&#45;Player 2&#45;&#45;2&#45;noobnoob</title>
<path fill="none" stroke="black" d="M382.242,-978.638C397.015,-990.125 418.166,-1005.64 438.171,-1017 447.467,-1022.28 457.994,-1027.21 467.703,-1031.39"/>
</g>
<!-- 2&#45;superman -->
<g id="node31" class="node"><title>2&#45;superman</title>
<ellipse fill="#1a1a1a" stroke="black" cx="501.215" cy="-990" rx="45.4919" ry="18"/>
<text text-anchor="middle" x="501.215" y="-986.3" font-family="Times,serif" font-size="14.00">superman</text>
</g>
<!-- super_heroes&#45;Player 2&#45;&#45;2&#45;superman -->
<g id="edge30" class="edge"><title>super_heroes&#45;Player 2&#45;&#45;2&#45;superman</title>
<path fill="none" stroke="black" d="M398.959,-970.094C417.715,-973.781 440.694,-978.299 460.017,-982.097"/>
</g>
<!-- 2&#45;spiderman -->
<g id="node32" class="node"><title>2&#45;spiderman</title>
<ellipse fill="#1a1a1a" stroke="black" cx="501.215" cy="-936" rx="48.1917" ry="18"/>
<text text-anchor="middle" x="501.215" y="-932.3" font-family="Times,serif" font-size="14.00">spiderman</text>
</g>
<!-- super_heroes&#45;Player 2&#45;&#45;2&#45;spiderman -->
<g id="edge31" class="edge"><title>super_heroes&#45;Player 2&#45;&#45;2&#45;spiderman</title>
<path fill="none" stroke="black" d="M398.959,-955.906C417.079,-952.344 439.141,-948.007 458.04,-944.291"/>
</g>
<!-- 2&#45;batman -->
<g id="node33" class="node"><title>2&#45;batman</title>
<ellipse fill="green" stroke="black" cx="501.215" cy="-882" rx="37.0935" ry="18"/>
<text text-anchor="middle" x="501.215" y="-878.3" font-family="Times,serif" font-size="14.00">batman</text>
</g>
<!-- super_heroes&#45;Player 2&#45;&#45;2&#45;batman -->
<g id="edge32" class="edge"><title>super_heroes&#45;Player 2&#45;&#45;2&#45;batman</title>
<path fill="none" stroke="black" d="M382.242,-947.362C397.015,-935.875 418.166,-920.356 438.171,-909 448.693,-903.027 460.792,-897.489 471.496,-893.004"/>
</g>
<!-- 3&#45;noobnoob -->
<g id="node34" class="node"><title>3&#45;noobnoob</title>
<ellipse fill="#cccccc" stroke="black" cx="501.215" cy="-828" rx="46.2923" ry="18"/>
<text text-anchor="middle" x="501.215" y="-824.3" font-family="Times,serif" font-size="14.00">noobnoob</text>
</g>
<!-- super_heroes&#45;Player 3&#45;&#45;3&#45;noobnoob -->
<g id="edge33" class="edge"><title>super_heroes&#45;Player 3&#45;&#45;3&#45;noobnoob</title>
<path fill="none" stroke="black" d="M392.675,-785.717C414.923,-794.465 445.287,-806.403 468.077,-815.364"/>
</g>
<!-- 3&#45;superman -->
<g id="node35" class="node"><title>3&#45;superman</title>
<ellipse fill="#1a1a1a" stroke="black" cx="501.215" cy="-774" rx="45.4919" ry="18"/>
<text text-anchor="middle" x="501.215" y="-770.3" font-family="Times,serif" font-size="14.00">superman</text>
</g>
<!-- super_heroes&#45;Player 3&#45;&#45;3&#45;superman -->
<g id="edge34" class="edge"><title>super_heroes&#45;Player 3&#45;&#45;3&#45;superman</title>
<path fill="none" stroke="black" d="M402.231,-774C418.876,-774 438.351,-774 455.534,-774"/>
</g>
<!-- 3&#45;spiderman -->
<g id="node36" class="node"><title>3&#45;spiderman</title>
<ellipse fill="#1a1a1a" stroke="black" cx="501.215" cy="-720" rx="48.1917" ry="18"/>
<text text-anchor="middle" x="501.215" y="-716.3" font-family="Times,serif" font-size="14.00">spiderman</text>
</g>
<!-- super_heroes&#45;Player 3&#45;&#45;3&#45;spiderman -->
<g id="edge35" class="edge"><title>super_heroes&#45;Player 3&#45;&#45;3&#45;spiderman</title>
<path fill="none" stroke="black" d="M392.675,-762.283C414.607,-753.659 444.427,-741.935 467.103,-733.019"/>
</g>
<!-- 3&#45;batman -->
<g id="node37" class="node"><title>3&#45;batman</title>
<ellipse fill="#1a1a1a" stroke="black" cx="501.215" cy="-666" rx="37.0935" ry="18"/>
<text text-anchor="middle" x="501.215" y="-662.3" font-family="Times,serif" font-size="14.00">batman</text>
</g>
<!-- super_heroes&#45;Player 3&#45;&#45;3&#45;batman -->
<g id="edge36" class="edge"><title>super_heroes&#45;Player 3&#45;&#45;3&#45;batman</title>
<path fill="none" stroke="black" d="M375.354,-756.858C389.088,-738.979 412.63,-711.086 438.171,-693 447.854,-686.143 459.554,-680.494 470.172,-676.167"/>
</g>
<!-- healthy_food&#45;Player 1 -->
<g id="node11" class="node"><title>healthy_food&#45;Player 1</title>
<ellipse fill="none" stroke="black" cx="361.874" cy="-504" rx="40.0939" ry="18"/>
<text text-anchor="middle" x="361.874" y="-500.3" font-family="Times,serif" font-size="14.00">Player 1</text>
</g>
<!-- healthy_food&#45;&#45;healthy_food&#45;Player 1 -->
<g id="edge10" class="edge"><title>healthy_food&#45;&#45;healthy_food&#45;Player 1</title>
<path fill="none" stroke="black" d="M253.275,-439.003C277.699,-453.757 313.624,-475.458 337.133,-489.659"/>
</g>
<!-- healthy_food&#45;Player 2 -->
<g id="node12" class="node"><title>healthy_food&#45;Player 2</title>
<ellipse fill="none" stroke="black" cx="361.874" cy="-342" rx="40.0939" ry="18"/>
<text text-anchor="middle" x="361.874" y="-338.3" font-family="Times,serif" font-size="14.00">Player 2</text>
</g>
<!-- healthy_food&#45;&#45;healthy_food&#45;Player 2 -->
<g id="edge11" class="edge"><title>healthy_food&#45;&#45;healthy_food&#45;Player 2</title>
<path fill="none" stroke="black" d="M253.275,-406.997C277.699,-392.243 313.624,-370.542 337.133,-356.341"/>
</g>
<!-- healthy_food&#45;Player 3 -->
<g id="node13" class="node"><title>healthy_food&#45;Player 3</title>
<ellipse fill="none" stroke="black" cx="361.874" cy="-126" rx="40.0939" ry="18"/>
<text text-anchor="middle" x="361.874" y="-122.3" font-family="Times,serif" font-size="14.00">Player 3</text>
</g>
<!-- healthy_food&#45;&#45;healthy_food&#45;Player 3 -->
<g id="edge12" class="edge"><title>healthy_food&#45;&#45;healthy_food&#45;Player 3</title>
<path fill="none" stroke="black" d="M234.969,-404.868C258.965,-351.72 328.937,-196.738 352.795,-143.894"/>
</g>
<!-- 1&#45;giants_milk -->
<g id="node38" class="node"><title>1&#45;giants_milk</title>
<ellipse fill="#cccccc" stroke="black" cx="501.215" cy="-612" rx="52.7911" ry="18"/>
<text text-anchor="middle" x="501.215" y="-608.3" font-family="Times,serif" font-size="14.00">giants_milk</text>
</g>
<!-- healthy_food&#45;Player 1&#45;&#45;1&#45;giants_milk -->
<g id="edge37" class="edge"><title>healthy_food&#45;Player 1&#45;&#45;1&#45;giants_milk</title>
<path fill="none" stroke="black" d="M375.354,-521.142C389.088,-539.021 412.63,-566.914 438.171,-585 445.936,-590.499 454.999,-595.221 463.761,-599.108"/>
</g>
<!-- 1&#45;cucumber -->
<g id="node39" class="node"><title>1&#45;cucumber</title>
<ellipse fill="#1a1a1a" stroke="black" cx="501.215" cy="-558" rx="46.2923" ry="18"/>
<text text-anchor="middle" x="501.215" y="-554.3" font-family="Times,serif" font-size="14.00">cucumber</text>
</g>
<!-- healthy_food&#45;Player 1&#45;&#45;1&#45;cucumber -->
<g id="edge38" class="edge"><title>healthy_food&#45;Player 1&#45;&#45;1&#45;cucumber</title>
<path fill="none" stroke="black" d="M392.675,-515.717C414.923,-524.465 445.287,-536.403 468.077,-545.364"/>
</g>
<!-- 1&#45;avocado -->
<g id="node40" class="node"><title>1&#45;avocado</title>
<ellipse fill="#1a1a1a" stroke="black" cx="501.215" cy="-504" rx="40.0939" ry="18"/>
<text text-anchor="middle" x="501.215" y="-500.3" font-family="Times,serif" font-size="14.00">avocado</text>
</g>
<!-- healthy_food&#45;Player 1&#45;&#45;1&#45;avocado -->
<g id="edge39" class="edge"><title>healthy_food&#45;Player 1&#45;&#45;1&#45;avocado</title>
<path fill="none" stroke="black" d="M402.231,-504C420.62,-504 442.463,-504 460.853,-504"/>
</g>
<!-- 1&#45;vitamin_pill -->
<g id="node41" class="node"><title>1&#45;vitamin_pill</title>
<ellipse fill="green" stroke="black" cx="501.215" cy="-450" rx="53.8905" ry="18"/>
<text text-anchor="middle" x="501.215" y="-446.3" font-family="Times,serif" font-size="14.00">vitamin_pill</text>
</g>
<!-- healthy_food&#45;Player 1&#45;&#45;1&#45;vitamin_pill -->
<g id="edge40" class="edge"><title>healthy_food&#45;Player 1&#45;&#45;1&#45;vitamin_pill</title>
<path fill="none" stroke="black" d="M392.675,-492.283C414.134,-483.846 443.143,-472.44 465.625,-463.6"/>
</g>
<!-- 2&#45;giants_milk -->
<g id="node42" class="node"><title>2&#45;giants_milk</title>
<ellipse fill="#1a1a1a" stroke="black" cx="501.215" cy="-396" rx="52.7911" ry="18"/>
<text text-anchor="middle" x="501.215" y="-392.3" font-family="Times,serif" font-size="14.00">giants_milk</text>
</g>
<!-- healthy_food&#45;Player 2&#45;&#45;2&#45;giants_milk -->
<g id="edge41" class="edge"><title>healthy_food&#45;Player 2&#45;&#45;2&#45;giants_milk</title>
<path fill="none" stroke="black" d="M392.675,-353.717C414.134,-362.154 443.143,-373.56 465.625,-382.4"/>
</g>
<!-- 2&#45;cucumber -->
<g id="node43" class="node"><title>2&#45;cucumber</title>
<ellipse fill="green" stroke="black" cx="501.215" cy="-342" rx="46.2923" ry="18"/>
<text text-anchor="middle" x="501.215" y="-338.3" font-family="Times,serif" font-size="14.00">cucumber</text>
</g>
<!-- healthy_food&#45;Player 2&#45;&#45;2&#45;cucumber -->
<g id="edge42" class="edge"><title>healthy_food&#45;Player 2&#45;&#45;2&#45;cucumber</title>
<path fill="none" stroke="black" d="M402.231,-342C418.718,-342 437.98,-342 455.042,-342"/>
</g>
<!-- 2&#45;avocado -->
<g id="node44" class="node"><title>2&#45;avocado</title>
<ellipse fill="green" stroke="black" cx="501.215" cy="-288" rx="40.0939" ry="18"/>
<text text-anchor="middle" x="501.215" y="-284.3" font-family="Times,serif" font-size="14.00">avocado</text>
</g>
<!-- healthy_food&#45;Player 2&#45;&#45;2&#45;avocado -->
<g id="edge43" class="edge"><title>healthy_food&#45;Player 2&#45;&#45;2&#45;avocado</title>
<path fill="none" stroke="black" d="M392.675,-330.283C415.712,-321.225 447.45,-308.746 470.472,-299.694"/>
</g>
<!-- 2&#45;vitamin_pill -->
<g id="node45" class="node"><title>2&#45;vitamin_pill</title>
<ellipse fill="#1a1a1a" stroke="black" cx="501.215" cy="-234" rx="53.8905" ry="18"/>
<text text-anchor="middle" x="501.215" y="-230.3" font-family="Times,serif" font-size="14.00">vitamin_pill</text>
</g>
<!-- healthy_food&#45;Player 2&#45;&#45;2&#45;vitamin_pill -->
<g id="edge44" class="edge"><title>healthy_food&#45;Player 2&#45;&#45;2&#45;vitamin_pill</title>
<path fill="none" stroke="black" d="M375.354,-324.858C389.088,-306.979 412.63,-279.086 438.171,-261 445.84,-255.569 454.775,-250.895 463.436,-247.037"/>
</g>
<!-- 3&#45;giants_milk -->
<g id="node46" class="node"><title>3&#45;giants_milk</title>
<ellipse fill="#1a1a1a" stroke="black" cx="501.215" cy="-180" rx="52.7911" ry="18"/>
<text text-anchor="middle" x="501.215" y="-176.3" font-family="Times,serif" font-size="14.00">giants_milk</text>
</g>
<!-- healthy_food&#45;Player 3&#45;&#45;3&#45;giants_milk -->
<g id="edge45" class="edge"><title>healthy_food&#45;Player 3&#45;&#45;3&#45;giants_milk</title>
<path fill="none" stroke="black" d="M392.675,-137.717C414.134,-146.154 443.143,-157.56 465.625,-166.4"/>
</g>
<!-- 3&#45;cucumber -->
<g id="node47" class="node"><title>3&#45;cucumber</title>
<ellipse fill="#1a1a1a" stroke="black" cx="501.215" cy="-126" rx="46.2923" ry="18"/>
<text text-anchor="middle" x="501.215" y="-122.3" font-family="Times,serif" font-size="14.00">cucumber</text>
</g>
<!-- healthy_food&#45;Player 3&#45;&#45;3&#45;cucumber -->
<g id="edge46" class="edge"><title>healthy_food&#45;Player 3&#45;&#45;3&#45;cucumber</title>
<path fill="none" stroke="black" d="M402.231,-126C418.718,-126 437.98,-126 455.042,-126"/>
</g>
<!-- 3&#45;avocado -->
<g id="node48" class="node"><title>3&#45;avocado</title>
<ellipse fill="#1a1a1a" stroke="black" cx="501.215" cy="-72" rx="40.0939" ry="18"/>
<text text-anchor="middle" x="501.215" y="-68.3" font-family="Times,serif" font-size="14.00">avocado</text>
</g>
<!-- healthy_food&#45;Player 3&#45;&#45;3&#45;avocado -->
<g id="edge47" class="edge"><title>healthy_food&#45;Player 3&#45;&#45;3&#45;avocado</title>
<path fill="none" stroke="black" d="M392.675,-114.283C415.712,-105.225 447.45,-92.7462 470.472,-83.6943"/>
</g>
<!-- 3&#45;vitamin_pill -->
<g id="node49" class="node"><title>3&#45;vitamin_pill</title>
<ellipse fill="#1a1a1a" stroke="black" cx="501.215" cy="-18" rx="53.8905" ry="18"/>
<text text-anchor="middle" x="501.215" y="-14.3" font-family="Times,serif" font-size="14.00">vitamin_pill</text>
</g>
<!-- healthy_food&#45;Player 3&#45;&#45;3&#45;vitamin_pill -->
<g id="edge48" class="edge"><title>healthy_food&#45;Player 3&#45;&#45;3&#45;vitamin_pill</title>
<path fill="none" stroke="black" d="M375.354,-108.858C389.088,-90.979 412.63,-63.0862 438.171,-45 445.84,-39.5689 454.775,-34.8955 463.436,-31.0366"/>
</g>
</g>
</svg>
